<svg width="76" height="34" viewBox="0 0 76 34" fill="none" xmlns="http://www.w3.org/2000/svg">
<path d="M0 1.19877C1.03172 0.981109 2.90216 0.817139 4.73342 0.817139C7.14076 0.817139 8.62086 1.11751 9.83687 1.98816C10.9484 2.66726 11.6884 3.86441 11.6884 5.41561C11.6884 7.10321 10.6567 8.65442 8.72679 9.38867V9.4438C10.6045 9.93282 12.3226 11.4565 12.3226 13.9871C12.3366 14.7057 12.1896 15.4183 11.8923 16.0727C11.595 16.727 11.155 17.3065 10.6045 17.7686C9.33479 18.9121 7.24524 19.4838 3.99337 19.4838C2.65833 19.4892 1.32436 19.4072 0 19.2386V1.19877ZM3.22575 8.43676H4.89159C7.14076 8.43676 8.40901 7.34844 8.40901 5.79724C8.40901 4.08207 7.14076 3.29413 5.07152 3.29413C4.11961 3.29413 3.56385 3.34782 3.21994 3.42908L3.22575 8.43676ZM3.22575 16.8719C3.79675 16.9338 4.37098 16.961 4.94528 16.9531C7.03483 16.9531 8.88496 16.1362 8.88496 13.8783C8.88496 11.7539 7.08707 10.8833 4.83645 10.8833H3.22575V16.8719Z" fill="#005350"/>
<path d="M21.9594 18.8975C20.9993 19.3603 19.946 19.597 18.8802 19.5897C15.2307 19.5897 12.4287 17.0038 12.4287 12.7594C12.4287 9.76006 13.7463 7.56022 15.8373 6.48352L18.5058 8.22482C16.5759 8.5368 15.7865 10.6409 15.7865 12.6753C15.7865 14.3266 16.2929 15.7153 17.1853 16.4931L15.7705 17.4464L21.9594 18.8975Z" fill="#005350"/>
<path d="M44.1853 12.1892C44.1853 9.27833 42.8111 5.7406 38.632 5.7406C36.8704 5.7406 35.4643 6.37182 34.434 7.38032L37.6598 8.13488C37.9158 8.06071 38.1812 8.02405 38.4477 8.02605C39.2705 8.02605 39.8582 8.31627 40.2674 8.74434C40.5751 9.07766 40.8021 9.47735 40.9305 9.91245C41.064 10.3505 41.1272 10.807 41.1177 11.2649H38.9237L33.7607 14.7475L40.9175 19.4286C41.7933 19.3095 42.6507 19.0814 43.4699 18.7495L42.9998 16.4365C42.0217 16.8167 40.9378 17.0344 39.4301 17.0344C37.3681 17.0344 35.5427 16.0012 35.4643 13.6055H44.0852C44.1577 13.137 44.1912 12.6632 44.1853 12.1892Z" fill="#005350"/>
<path d="M52.0663 19.2996L51.8515 17.8238H51.7717C50.9809 18.8643 49.6328 19.5898 47.967 19.5898C45.3754 19.5898 43.9214 17.657 43.9214 15.6443C43.9214 12.2967 46.8032 10.6105 51.5628 10.6381V10.4204C51.5628 9.54979 51.2189 8.10742 48.9508 8.10742C47.6826 8.10742 46.3592 8.51517 45.4871 9.0869L44.853 6.91028C45.8049 6.31098 47.4649 5.73926 49.5066 5.73926C53.632 5.73926 54.8219 8.43391 54.8219 11.3172V16.1058C54.8031 17.1734 54.8633 18.2409 55.0018 19.2996H52.0663ZM51.6426 12.8234C49.3426 12.7683 47.1442 13.2849 47.1442 15.299C47.1442 16.6049 47.9641 17.2042 48.9958 17.2042C49.5583 17.2108 50.1081 17.0375 50.5652 16.7097C51.0222 16.3818 51.3626 15.9166 51.5366 15.3817C51.6091 15.1437 51.6448 14.8961 51.6426 14.6474V12.8234Z" fill="#005350"/>
<path d="M56.2695 9.98791C56.2695 8.46282 56.2434 7.18442 56.1636 6.04243H58.9613L59.0933 8.00138H59.1731C59.8072 6.96677 60.971 5.74205 63.1389 5.74205C63.9154 5.72557 64.6774 5.95305 65.3178 6.39246C65.9582 6.83187 66.4446 7.46108 66.7086 8.19148H66.7623C67.1555 7.52065 67.7007 6.95154 68.3541 6.52999C69.068 6.0134 69.8879 5.7406 70.9457 5.7406C73.0875 5.7406 75.2569 7.23812 75.2569 11.4825V19.2995H72.0834V11.973C72.0834 9.77025 71.3433 8.46283 69.782 8.46283C68.6719 8.46283 67.852 9.27978 67.5081 10.2317C67.4127 10.5963 67.3596 10.9708 67.3499 11.3476V19.2995H64.1764V11.6204C64.1764 9.77025 63.4625 8.46283 61.9548 8.46283C60.7388 8.46283 59.9233 9.44376 59.6331 10.3681C59.5036 10.716 59.4411 11.0853 59.4488 11.4564V19.2922H56.2695V9.98791Z" fill="#005350"/>
<path d="M42.3842 22.1219L31.1369 14.7649L38.4765 9.81821L15.4957 4.44922L15.4565 4.50871L26.6821 11.8526L19.3382 16.8023L42.3421 22.1829L42.3842 22.1219Z" fill="#FBB040"/>
<path d="M6.26251 26.5323H5.44336C5.39492 26.2967 5.31014 26.0897 5.18903 25.9114C5.07012 25.733 4.92479 25.5833 4.75303 25.4622C4.58348 25.3389 4.3952 25.2464 4.18822 25.1847C3.98123 25.1231 3.76543 25.0922 3.54083 25.0922C3.13125 25.0922 2.76022 25.1957 2.42771 25.4027C2.09741 25.6097 1.83427 25.9147 1.63829 26.3177C1.44452 26.7206 1.34763 27.215 1.34763 27.8007C1.34763 28.3864 1.44452 28.8808 1.63829 29.2838C1.83427 29.6867 2.09741 29.9917 2.42771 30.1987C2.76022 30.4057 3.13125 30.5092 3.54083 30.5092C3.76543 30.5092 3.98123 30.4783 4.18822 30.4167C4.3952 30.355 4.58348 30.2636 4.75303 30.1425C4.92479 30.0192 5.07012 29.8684 5.18903 29.69C5.31014 29.5095 5.39492 29.3025 5.44336 29.0691H6.26251C6.20085 29.4148 6.08855 29.7242 5.9256 29.9972C5.76265 30.2703 5.56007 30.5026 5.31785 30.6941C5.07563 30.8835 4.80368 31.0277 4.502 31.1268C4.20253 31.2259 3.88214 31.2755 3.54083 31.2755C2.9639 31.2755 2.45083 31.1345 2.00162 30.8527C1.55241 30.5708 1.19899 30.1701 0.941358 29.6504C0.683723 29.1307 0.554906 28.5142 0.554906 27.8007C0.554906 27.0873 0.683723 26.4707 0.941358 25.951C1.19899 25.4313 1.55241 25.0306 2.00162 24.7487C2.45083 24.4669 2.9639 24.3259 3.54083 24.3259C3.88214 24.3259 4.20253 24.3755 4.502 24.4746C4.80368 24.5737 5.07563 24.719 5.31785 24.9106C5.56007 25.0999 5.76265 25.3312 5.9256 25.6042C6.08855 25.875 6.20085 26.1844 6.26251 26.5323ZM13.2938 27.8007C13.2938 28.5142 13.165 29.1307 12.9073 29.6504C12.6497 30.1701 12.2963 30.5708 11.8471 30.8527C11.3979 31.1345 10.8848 31.2755 10.3079 31.2755C9.73094 31.2755 9.21787 31.1345 8.76867 30.8527C8.31946 30.5708 7.96603 30.1701 7.7084 29.6504C7.45076 29.1307 7.32195 28.5142 7.32195 27.8007C7.32195 27.0873 7.45076 26.4707 7.7084 25.951C7.96603 25.4313 8.31946 25.0306 8.76867 24.7487C9.21787 24.4669 9.73094 24.3259 10.3079 24.3259C10.8848 24.3259 11.3979 24.4669 11.8471 24.7487C12.2963 25.0306 12.6497 25.4313 12.9073 25.951C13.165 26.4707 13.2938 27.0873 13.2938 27.8007ZM12.5011 27.8007C12.5011 27.215 12.4031 26.7206 12.2071 26.3177C12.0133 25.9147 11.7502 25.6097 11.4177 25.4027C11.0874 25.1957 10.7174 25.0922 10.3079 25.0922C9.89829 25.0922 9.52726 25.1957 9.19475 25.4027C8.86445 25.6097 8.60131 25.9147 8.40533 26.3177C8.21156 26.7206 8.11467 27.215 8.11467 27.8007C8.11467 28.3864 8.21156 28.8808 8.40533 29.2838C8.60131 29.6867 8.86445 29.9917 9.19475 30.1987C9.52726 30.4057 9.89829 30.5092 10.3079 30.5092C10.7174 30.5092 11.0874 30.4057 11.4177 30.1987C11.7502 29.9917 12.0133 29.6867 12.2071 29.2838C12.4031 28.8808 12.5011 28.3864 12.5011 27.8007ZM20.0352 24.4184V31.183H19.2425L15.5564 25.8717H15.4903V31.183H14.6711V24.4184H15.4639L19.1632 29.7429H19.2293V24.4184H20.0352ZM25.3737 26.1096C25.3341 25.7749 25.1733 25.515 24.8915 25.3301C24.6096 25.1451 24.2639 25.0526 23.8543 25.0526C23.5549 25.0526 23.2928 25.101 23.0682 25.1979C22.8458 25.2948 22.6719 25.428 22.5463 25.5976C22.423 25.7671 22.3614 25.9598 22.3614 26.1756C22.3614 26.3562 22.4043 26.5114 22.4902 26.6413C22.5783 26.7691 22.6906 26.8759 22.8271 26.9617C22.9636 27.0454 23.1068 27.1148 23.2565 27.1698C23.4062 27.2227 23.5439 27.2656 23.6694 27.2986L24.3564 27.4836C24.5326 27.5299 24.7285 27.5937 24.9443 27.6752C25.1623 27.7567 25.3704 27.8679 25.5686 28.0088C25.769 28.1475 25.9341 28.3259 26.0641 28.5439C26.194 28.7619 26.2589 29.0294 26.2589 29.3465C26.2589 29.712 26.1631 30.0423 25.9716 30.3374C25.7822 30.6325 25.5047 30.867 25.1392 31.041C24.7759 31.2149 24.3344 31.3019 23.8147 31.3019C23.3303 31.3019 22.9108 31.2237 22.5563 31.0674C22.2039 30.911 21.9265 30.693 21.7239 30.4134C21.5235 30.1337 21.4101 29.8089 21.3837 29.439H22.2293C22.2513 29.6944 22.3372 29.9058 22.4869 30.0732C22.6388 30.2383 22.8304 30.3616 23.0616 30.4431C23.295 30.5224 23.5461 30.562 23.8147 30.562C24.1274 30.562 24.4081 30.5114 24.657 30.4101C24.9058 30.3066 25.1029 30.1635 25.2482 29.9807C25.3935 29.7957 25.4662 29.5799 25.4662 29.3333C25.4662 29.1087 25.4034 28.9259 25.2779 28.785C25.1524 28.6441 24.9873 28.5296 24.7825 28.4415C24.5777 28.3534 24.3564 28.2763 24.1186 28.2103L23.2862 27.9725C22.7577 27.8205 22.3394 27.6036 22.0311 27.3218C21.7228 27.0399 21.5687 26.6711 21.5687 26.2153C21.5687 25.8365 21.671 25.5062 21.8758 25.2244C22.0828 24.9403 22.3603 24.7201 22.7082 24.5638C23.0583 24.4052 23.4492 24.3259 23.8808 24.3259C24.3168 24.3259 24.7043 24.4041 25.0434 24.5604C25.3825 24.7146 25.6512 24.926 25.8494 25.1946C26.0497 25.4633 26.1554 25.7682 26.1664 26.1096H25.3737ZM27.2358 25.1451V24.4184H32.3092V25.1451H30.1821V31.183H29.3629V25.1451H27.2358ZM33.5734 31.183V24.4184H35.8591C36.3876 24.4184 36.8214 24.5087 37.1605 24.6893C37.4996 24.8676 37.7506 25.1132 37.9136 25.4258C38.0765 25.7385 38.158 26.0941 38.158 26.4927C38.158 26.8913 38.0765 27.2447 37.9136 27.553C37.7506 27.8613 37.5007 28.1035 37.1638 28.2796C36.8269 28.4536 36.3964 28.5406 35.8723 28.5406H34.0227V27.8007H35.8459C36.207 27.8007 36.4977 27.7479 36.7179 27.6422C36.9403 27.5365 37.1011 27.3867 37.2001 27.1929C37.3014 26.997 37.3521 26.7636 37.3521 26.4927C37.3521 26.2219 37.3014 25.9851 37.2001 25.7826C37.0989 25.58 36.937 25.4236 36.7146 25.3135C36.4922 25.2012 36.1982 25.1451 35.8327 25.1451H34.3926V31.183H33.5734ZM36.7575 28.1442L38.4223 31.183H37.471L35.8327 28.1442H36.7575ZM43.9622 24.4184H44.7814V28.8973C44.7814 29.3597 44.6724 29.7726 44.4544 30.1359C44.2386 30.4971 43.9336 30.7822 43.5394 30.9914C43.1453 31.1984 42.6829 31.3019 42.1522 31.3019C41.6215 31.3019 41.1591 31.1984 40.7649 30.9914C40.3708 30.7822 40.0647 30.4971 39.8467 30.1359C39.6309 29.7726 39.523 29.3597 39.523 28.8973V24.4184H40.3421V28.8312C40.3421 29.1615 40.4148 29.4555 40.5601 29.7131C40.7055 29.9686 40.9125 30.1701 41.1811 30.3176C41.4519 30.4629 41.7756 30.5356 42.1522 30.5356C42.5287 30.5356 42.8524 30.4629 43.1233 30.3176C43.3941 30.1701 43.6011 29.9686 43.7442 29.7131C43.8896 29.4555 43.9622 29.1615 43.9622 28.8312V24.4184ZM51.8606 26.5323H51.0414C50.993 26.2967 50.9082 26.0897 50.7871 25.9114C50.6682 25.733 50.5228 25.5833 50.3511 25.4622C50.1815 25.3389 49.9933 25.2464 49.7863 25.1847C49.5793 25.1231 49.3635 25.0922 49.1389 25.0922C48.7293 25.0922 48.3583 25.1957 48.0258 25.4027C47.6955 25.6097 47.4323 25.9147 47.2363 26.3177C47.0426 26.7206 46.9457 27.215 46.9457 27.8007C46.9457 28.3864 47.0426 28.8808 47.2363 29.2838C47.4323 29.6867 47.6955 29.9917 48.0258 30.1987C48.3583 30.4057 48.7293 30.5092 49.1389 30.5092C49.3635 30.5092 49.5793 30.4783 49.7863 30.4167C49.9933 30.355 50.1815 30.2636 50.3511 30.1425C50.5228 30.0192 50.6682 29.8684 50.7871 29.69C50.9082 29.5095 50.993 29.3025 51.0414 29.0691H51.8606C51.7989 29.4148 51.6866 29.7242 51.5236 29.9972C51.3607 30.2703 51.1581 30.5026 50.9159 30.6941C50.6737 30.8835 50.4017 31.0277 50.1001 31.1268C49.8006 31.2259 49.4802 31.2755 49.1389 31.2755C48.562 31.2755 48.0489 31.1345 47.5997 30.8527C47.1505 30.5708 46.797 30.1701 46.5394 29.6504C46.2818 29.1307 46.153 28.5142 46.153 27.8007C46.153 27.0873 46.2818 26.4707 46.5394 25.951C46.797 25.4313 47.1505 25.0306 47.5997 24.7487C48.0489 24.4669 48.562 24.3259 49.1389 24.3259C49.4802 24.3259 49.8006 24.3755 50.1001 24.4746C50.4017 24.5737 50.6737 24.719 50.9159 24.9106C51.1581 25.0999 51.3607 25.3312 51.5236 25.6042C51.6866 25.875 51.7989 26.1844 51.8606 26.5323ZM52.8143 25.1451V24.4184H57.8877V25.1451H55.7606V31.183H54.9414V25.1451H52.8143ZM59.9711 24.4184V31.183H59.1519V24.4184H59.9711ZM67.3211 27.8007C67.3211 28.5142 67.1923 29.1307 66.9347 29.6504C66.677 30.1701 66.3236 30.5708 65.8744 30.8527C65.4252 31.1345 64.9121 31.2755 64.3352 31.2755C63.7583 31.2755 63.2452 31.1345 62.796 30.8527C62.3468 30.5708 61.9934 30.1701 61.7357 29.6504C61.4781 29.1307 61.3493 28.5142 61.3493 27.8007C61.3493 27.0873 61.4781 26.4707 61.7357 25.951C61.9934 25.4313 62.3468 25.0306 62.796 24.7487C63.2452 24.4669 63.7583 24.3259 64.3352 24.3259C64.9121 24.3259 65.4252 24.4669 65.8744 24.7487C66.3236 25.0306 66.677 25.4313 66.9347 25.951C67.1923 26.4707 67.3211 27.0873 67.3211 27.8007ZM66.5284 27.8007C66.5284 27.215 66.4304 26.7206 66.2344 26.3177C66.0407 25.9147 65.7775 25.6097 65.445 25.4027C65.1147 25.1957 64.7448 25.0922 64.3352 25.0922C63.9256 25.0922 63.5546 25.1957 63.2221 25.4027C62.8918 25.6097 62.6286 25.9147 62.4327 26.3177C62.2389 26.7206 62.142 27.215 62.142 27.8007C62.142 28.3864 62.2389 28.8808 62.4327 29.2838C62.6286 29.6867 62.8918 29.9917 63.2221 30.1987C63.5546 30.4057 63.9256 30.5092 64.3352 30.5092C64.7448 30.5092 65.1147 30.4057 65.445 30.1987C65.7775 29.9917 66.0407 29.6867 66.2344 29.2838C66.4304 28.8808 66.5284 28.3864 66.5284 27.8007ZM74.0626 24.4184V31.183H73.2698L69.5837 25.8717H69.5176V31.183H68.6985V24.4184H69.4912L73.1906 29.7429H73.2566V24.4184H74.0626Z" fill="#FDBE33"/>
</svg>
